<svg width="32" height="32" viewBox="0 0 32 32" fill="none" xmlns="http://www.w3.org/2000/svg">
<path fill-rule="evenodd" clip-rule="evenodd" d="M16 0C7.16072 0 0 7.16072 0 16C0 24.8393 7.16072 32 16 32C24.8393 32 32 24.831 32 16C32 7.16899 24.831 0 16 0ZM26.9065 21.1928C25.0047 22.615 23.1525 23.4832 21.3333 24.0455C20.8868 23.4253 20.4817 22.7721 20.1426 22.0775C20.7959 21.8295 21.4326 21.5235 22.0279 21.1597C21.9192 21.0796 21.8145 20.9956 21.7082 20.9103L21.7082 20.9103L21.7081 20.9102C21.6608 20.8722 21.6132 20.8341 21.5649 20.7959C17.9845 22.491 14.0486 22.491 10.4269 20.7959C10.278 20.9199 10.1209 21.0439 9.96382 21.1597C10.5592 21.5152 11.1876 21.8212 11.8408 22.0775C11.4935 22.7721 11.0966 23.4253 10.6501 24.0455C8.83101 23.4832 6.98708 22.615 5.08527 21.1928C4.69664 17.0171 5.4739 12.7835 8.35142 8.44238C9.77364 7.77261 11.3034 7.28475 12.8992 7.01189C13.0977 7.36744 13.3292 7.83876 13.4863 8.21912C15.1483 7.96279 16.8269 7.96279 18.522 8.21912C18.6791 7.83876 18.9106 7.36744 19.1008 7.01189C20.6966 7.28475 22.2181 7.77261 23.6403 8.44238C26.1292 12.155 27.3695 16.3556 26.9065 21.1928ZM19.6554 14.123C18.5474 14.123 17.6792 15.1401 17.6792 16.3721C17.6792 17.6041 18.5722 18.6212 19.6554 18.6212C20.7634 18.6212 21.6317 17.6041 21.6317 16.3721C21.6565 15.1401 20.7634 14.123 19.6554 14.123ZM10.3686 16.3721C10.3686 15.1401 11.2368 14.123 12.3448 14.123C13.4446 14.123 14.3376 15.1401 14.3211 16.3721C14.3211 17.6041 13.4528 18.6212 12.3448 18.6212C11.2616 18.6212 10.3686 17.6041 10.3686 16.3721Z" fill="url(#paint0_linear_243_3682)"/>
<defs>
<linearGradient id="paint0_linear_243_3682" x1="32" y1="1.02617e-06" x2="-17" y2="49" gradientUnits="userSpaceOnUse">
<stop stop-color="#FFD700"/>
<stop offset="1" stop-color="#0085FF"/>
</linearGradient>
</defs>
</svg>
