<svg width="32" height="32" viewBox="0 0 32 32" fill="none" xmlns="http://www.w3.org/2000/svg">
<path fill-rule="evenodd" clip-rule="evenodd" d="M15.9511 0C7.14373 0 0 7.34292 0 16.3958C0 23.6382 4.59939 29.774 10.8624 31.987C11.6453 32.0876 11.9388 31.5846 11.9388 31.1823C11.9388 30.7799 11.9388 29.7741 11.9388 28.3658C7.53517 29.3717 6.55657 26.1529 6.55657 26.1529C5.87156 24.2417 4.79511 23.7388 4.79511 23.7388C3.32722 22.7329 4.89297 22.7329 4.89297 22.7329C6.45872 22.8335 7.33945 24.4429 7.33945 24.4429C8.80734 26.9576 11.0581 26.2535 11.9388 25.8511C12.0367 24.7447 12.526 24.0405 12.9174 23.6382C9.3945 23.2358 5.67584 21.8276 5.67584 15.4906C5.67584 13.68 6.263 12.2717 7.33945 11.0647C7.24159 10.7629 6.65443 9.05292 7.53517 6.83998C7.53517 6.83998 8.9052 6.43763 11.9388 8.54998C13.211 8.14763 14.581 8.04704 15.9511 8.04704C17.3211 8.04704 18.6911 8.24822 19.9633 8.54998C22.9969 6.43763 24.367 6.83998 24.367 6.83998C25.2477 9.05292 24.6605 10.7629 24.5627 11.1653C25.5413 12.2717 26.2263 13.7806 26.2263 15.5911C26.2263 21.9282 22.5076 23.2358 18.9847 23.6382C19.5719 24.1411 20.0612 25.147 20.0612 26.6558C20.0612 28.8688 20.0612 30.5788 20.0612 31.1823C20.0612 31.5846 20.3547 32.0876 21.1376 31.987C27.4985 29.774 32 23.6382 32 16.3958C31.9021 7.34292 24.7584 0 15.9511 0Z" fill="url(#paint0_linear_243_3691)"/>
<defs>
<linearGradient id="paint0_linear_243_3691" x1="32" y1="1.02617e-06" x2="-17" y2="49" gradientUnits="userSpaceOnUse">
<stop stop-color="#FFD700"/>
<stop offset="1" stop-color="#0085FF"/>
</linearGradient>
</defs>
</svg>
