<svg width="32" height="32" viewBox="0 0 32 32" fill="none" xmlns="http://www.w3.org/2000/svg">
<path d="M16 0C7.16 0 0 7.16 0 16C0 24.84 7.16 32 16 32C24.84 32 32 24.84 32 16C32 7.16 24.84 0 16 0ZM22.68 6.32C23.6 6.32 24.3467 7.06667 24.3467 7.98667C24.3333 8.90667 23.5867 9.65333 22.6667 9.64C21.7867 9.62667 21.0667 8.94667 21.0267 8.06667L17.56 7.33333L16.4933 12.3333C18.92 12.4267 21.1333 13.1733 22.72 14.32C23.1333 13.9067 23.6933 13.6667 24.3333 13.6667C25.6267 13.6667 26.6667 14.72 26.6667 16C26.6667 16.96 26.0933 17.7733 25.32 18.1467C25.36 18.3733 25.3733 18.6133 25.3733 18.84C25.3733 22.4267 21.2 25.3333 16.04 25.3333C10.88 25.3333 6.70667 22.4267 6.70667 18.84C6.70667 18.6 6.72 18.3467 6.76 18.1333C5.92 17.76 5.37333 16.92 5.37333 16C5.37333 14.7067 6.42667 13.6667 7.70667 13.6667C8.32 13.6667 8.90667 13.9333 9.32 14.32C10.9333 13.1467 13.16 12.4133 15.64 12.3333L16.8267 6.76C16.8533 6.65333 16.92 6.56 17.0133 6.49333C17.1067 6.44 17.2267 6.41333 17.3333 6.44L21.2133 7.26667C21.4667 6.68 22.0533 6.32 22.68 6.32ZM12.3333 16C11.4133 16 10.6667 16.7467 10.6667 17.6667C10.6667 18.5867 11.4133 19.3333 12.3333 19.3333C13.2533 19.3333 14 18.5867 14 17.6667C14 16.7467 13.2533 16 12.3333 16ZM19.6667 16C18.7467 16 18 16.7467 18 17.6667C18 18.5867 18.7467 19.3333 19.6667 19.3333C20.5867 19.3333 21.3333 18.5867 21.3333 17.6667C21.3333 16.7467 20.5867 16 19.6667 16ZM12.3733 21.32C12.2533 21.32 12.1467 21.36 12.0667 21.44C11.8933 21.6133 11.8933 21.88 12.0667 22.0533C13.1867 23.1733 15.3733 23.2667 16.0133 23.2667C16.6533 23.2667 18.8133 23.1867 19.96 22.0533C20.12 21.88 20.1333 21.6267 20 21.44C19.8267 21.2667 19.5467 21.2667 19.3867 21.44C18.6533 22.1467 17.1467 22.4133 16.04 22.4133C14.9333 22.4133 13.4 22.1467 12.6933 21.44C12.6 21.36 12.4933 21.32 12.3733 21.32Z" fill="url(#paint0_linear_243_3689)"/>
<defs>
<linearGradient id="paint0_linear_243_3689" x1="32" y1="1.02617e-06" x2="-17" y2="49" gradientUnits="userSpaceOnUse">
<stop stop-color="#FFD700"/>
<stop offset="1" stop-color="#0085FF"/>
</linearGradient>
</defs>
</svg>
