<svg width="32" height="32" viewBox="0 0 32 32" fill="none" xmlns="http://www.w3.org/2000/svg">
<path d="M16 0C7.17313 0 0 7.17313 0 16C0 24.8269 7.17313 32 16 32C24.8269 32 32 24.8269 32 16C32 7.17313 24.8269 0 16 0ZM23.1525 12.3411C23.1525 12.5065 23.1525 12.6512 23.1525 12.8165C23.1525 17.6744 19.4522 23.2972 12.6718 23.2972C10.584 23.2972 8.6615 22.6977 7.02842 21.6434C7.31783 21.6848 7.60723 21.7054 7.89664 21.7054C9.63307 21.7054 11.2041 21.1266 12.4651 20.1344C10.8734 20.093 9.50904 19.0181 9.03359 17.5711C9.26098 17.6124 9.48837 17.6331 9.71576 17.6331C10.0465 17.6331 10.3773 17.5917 10.6873 17.509C9.01292 17.1783 7.73127 15.6899 7.73127 13.8915C7.73127 13.8708 7.73127 13.8501 7.73127 13.8501C8.22739 14.1189 8.78553 14.2842 9.40568 14.3049C8.41344 13.6434 7.77261 12.5271 7.77261 11.2455C7.77261 10.5633 7.95866 9.94315 8.26873 9.38501C10.0879 11.6176 12.8165 13.0853 15.876 13.23C15.814 12.9612 15.7726 12.6718 15.7726 12.3824C15.7726 10.3566 17.4264 8.70284 19.4522 8.70284C20.5065 8.70284 21.478 9.15762 22.1395 9.86047C22.9871 9.69509 23.7726 9.38501 24.4755 8.97158C24.2067 9.83979 23.6072 10.5633 22.863 11.0181C23.6072 10.9354 24.3307 10.7287 24.9716 10.4393C24.4961 11.1835 23.8553 11.8243 23.1525 12.3411Z" fill="url(#paint0_linear_243_3678)"/>
<defs>
<linearGradient id="paint0_linear_243_3678" x1="32" y1="1.02617e-06" x2="-17" y2="49" gradientUnits="userSpaceOnUse">
<stop stop-color="#FFD700"/>
<stop offset="1" stop-color="#0085FF"/>
</linearGradient>
</defs>
</svg>
